HIERARCHY
ROOT Hips
{
    OFFSET 0.000000 0.000000 0.000000
    CHANNELS 6 Xposition Yposition Zposition Zrotation Xrotation Yrotation
    JOINT Spine
    {
        OFFSET -0.000000 7.236184 0.000000
        CHANNELS 3 Zrotation Xrotation Yrotation
        JOINT Spine1
        {
            OFFSET -0.000000 20.420147 0.000000
            CHANNELS 3 Zrotation Xrotation Yrotation
            JOINT Neck
            {
                OFFSET -0.000000 20.336288 1.848754
                CHANNELS 3 Zrotation Xrotation Yrotation
                JOINT Head
                {
                    OFFSET -0.000000 12.354461 -1.764923
                    CHANNELS 3 Zrotation Xrotation Yrotation
                    End Site
                    {
                        OFFSET -0.000000 22.061537 0.000000
                    }
                }
            }
            JOINT LeftShoulder
            {
                OFFSET 3.573296 18.396038 -0.314103
                CHANNELS 3 Zrotation Xrotation Yrotation
                JOINT LeftArm
                {
                    OFFSET 10.880760 0.000000 0.000000
                    CHANNELS 3 Zrotation Xrotation Yrotation
                    JOINT LeftForeArm
                    {
                        OFFSET 27.185530 0.000000 0.000000
                        CHANNELS 3 Zrotation Xrotation Yrotation
                        JOINT LeftHand
                        {
                            OFFSET 27.825975 0.000000 0.000000
                            CHANNELS 3 Zrotation Xrotation Yrotation
                            End Site
                            {
                                OFFSET 13.236923 0.000000 0.000000
                            }
                        }
                    }
                }
            }
            JOINT RightShoulder
            {
                OFFSET -3.474926 18.396038 -0.314103
                CHANNELS 3 Zrotation Xrotation Yrotation
                JOINT RightArm
                {
                    OFFSET -10.880760 0.000000 0.000000
                    CHANNELS 3 Zrotation Xrotation Yrotation
                    JOINT RightForeArm
                    {
                        OFFSET -27.185530 0.000000 0.000000
                        CHANNELS 3 Zrotation Xrotation Yrotation
                        JOINT RightHand
                        {
                            OFFSET -27.825975 0.000000 0.000000
                            CHANNELS 3 Zrotation Xrotation Yrotation
                            End Site
                            {
                                OFFSET -13.236923 0.000000 0.000000
                            }
                        }
                    }
                }
            }
        }
    }
    JOINT LeftUpLeg
    {
        OFFSET 8.824615 0.000000 0.000000
        CHANNELS 3 Zrotation Xrotation Yrotation
        JOINT LeftLeg
        {
            OFFSET -0.000000 -35.111282 0.000000
            CHANNELS 3 Zrotation Xrotation Yrotation
            JOINT LeftFoot
            {
                OFFSET -0.000000 -42.324711 0.000000
                CHANNELS 3 Zrotation Xrotation Yrotation
                JOINT LeftToeBase
                {
                    OFFSET -0.000000 -5.735999 13.236923
                    CHANNELS 3 Zrotation Xrotation Yrotation
                    End Site
                    {
                        OFFSET -0.000000 0.000000 3.529846
                    }
                }
            }
        }
    }
    JOINT RightUpLeg
    {
        OFFSET -8.824615 0.000000 0.000000
        CHANNELS 3 Zrotation Xrotation Yrotation
        JOINT RightLeg
        {
            OFFSET -0.000000 -35.111282 0.000000
            CHANNELS 3 Zrotation Xrotation Yrotation
            JOINT RightFoot
            {
                OFFSET -0.000000 -42.324711 0.000000
                CHANNELS 3 Zrotation Xrotation Yrotation
                JOINT RightToeBase
                {
                    OFFSET -0.000000 -5.735999 13.236923
                    CHANNELS 3 Zrotation Xrotation Yrotation
                    End Site
                    {
                        OFFSET -0.000000 0.000000 3.529846
                    }
                }
            }
        }
    }
}
MOTION
Frames:    8
Frame Time:    0.008333
-6.981096    83.233299    104.476097    1.125644    -13.801849    -175.283600    -2.100457    -21.300545    -0.278850    1.472979    11.831625    -0.036486    1.551007    1.743412    -1.973187    5.348531    -10.381680    -1.024829    1.287535    18.820101    -4.251719    -36.696674    48.747807    -47.620243    1.644802    -6.238848    -10.354620    21.068928    -5.911029    0.971358    3.565833    21.671286    -0.457784    37.024372    44.876965    42.233219    -5.657569    -7.923989    17.082972    -16.150204    -6.762557    -2.259640    8.550768    -24.559526    3.277293    1.297581    22.117523    4.816390    -9.030509    -7.752677    -15.650246    -0.372521    -1.134522    0.413779    -8.756654    -17.612383    -1.531109    1.003524    13.926332    4.556872    7.393788    -7.567874    -13.571525    -1.234356    -1.248269    1.337356    
-6.980447    83.232803    104.485809    1.144290    -13.822597    -175.256714    -2.086217    -21.301769    -0.279178    1.453695    11.835391    -0.037192    1.555306    1.703583    -1.973798    5.331003    -10.384897    -1.030511    1.285842    18.826447    -4.252128    -36.690605    48.747726    -47.610390    1.635823    -6.256293    -10.339722    21.150537    -5.923234    1.001270    3.567832    21.660215    -0.453947    37.029694    44.873260    42.210854    -5.644430    -7.927988    17.064892    -16.121153    -6.768860    -2.267930    8.558015    -24.612919    3.260455    1.303495    22.152866    4.771957    -9.059985    -7.756956    -15.619284    -0.373260    -1.147677    0.414610    -8.745613    -17.632507    -1.515189    1.008639    13.922312    4.532864    7.392121    -7.565008    -13.588328    -1.231691    -1.252667    1.334477    
-6.979909    83.232346    104.495369    1.162571    -13.842779    -175.230225    -2.072209    -21.302990    -0.279189    1.434752    11.839630    -0.037919    1.559780    1.664945    -1.974462    5.313354    -10.388928    -1.036233    1.284472    18.832472    -4.252445    -36.684944    48.747765    -47.600529    1.627602    -6.273223    -10.325914    21.226835    -5.935324    1.028735    3.570212    21.649572    -0.450097    37.034973    44.868961    42.188679    -5.631486    -7.931768    17.046970    -16.093269    -6.774932    -2.275729    8.565049    -24.664946    3.244820    1.309494    22.187067    4.727883    -9.089231    -7.760895    -15.589534    -0.373912    -1.159990    0.415343    -8.734909    -17.651812    -1.500226    1.013554    13.917905    4.509980    7.390723    -7.562115    -13.604852    -1.228943    -1.256893    1.331507    
-6.979573    83.231911    104.504814    1.180470    -13.862185    -175.203949    -2.058330    -21.303947    -0.278828    1.415932    11.844641    -0.038497    1.564449    1.627180    -1.975268    5.295738    -10.393571    -1.042081    1.283562    18.837885    -4.252508    -36.679859    48.748119    -47.590374    1.620480    -6.289560    -10.313841    21.295784    -5.947316    1.052903    3.573371    21.639200    -0.446023    37.040302    44.864040    42.166172    -5.618883    -7.935430    17.029135    -16.067200    -6.780891    -2.282890    8.571745    -24.715279    3.231102    1.315834    22.219763    4.683521    -9.118546    -7.764291    -15.561365    -0.374342    -1.172213    0.415830    -8.724609    -17.669886    -1.486943    1.018001    13.912903    4.488992    7.389668    -7.559282    -13.621201    -1.226034    -1.261114    1.328363    
-6.979512    83.231537    104.514137    1.197808    -13.880585    -175.178055    -2.044646    -21.304588    -0.278546    1.397123    11.850702    -0.038266    1.569243    1.590667    -1.976206    5.278457    -10.399019    -1.047991    1.283049    18.842621    -4.252380    -36.675568    48.748493    -47.579544    1.614458    -6.305321    -10.304107    21.356071    -5.959251    1.073924    3.577630    21.629246    -0.441573    37.045994    44.857975    42.143162    -5.606705    -7.938862    17.011198    -16.043592    -6.786649    -2.289173    8.577975    -24.763353    3.219756    1.322482    22.250408    4.638793    -9.147720    -7.766971    -15.534987    -0.374579    -1.183619    0.416102    -8.715019    -17.686382    -1.475640    1.022147    13.907125    4.470728    7.388726    -7.556520    -13.637853    -1.223032    -1.265000    1.325119    
-6.979804    83.231232    104.523254    1.214224    -13.897713    -175.152756    -2.031423    -21.304647    -0.277449    1.378615    11.857606    -0.038000    1.574139    1.555957    -1.977282    5.261719    -10.405049    -1.053830    1.283004    18.846626    -4.251774    -36.671719    48.749371    -47.568623    1.609741    -6.320868    -10.296719    21.406889    -5.971423    1.092087    3.582877    21.619907    -0.436614    37.052055    44.850784    42.119804    -5.594972    -7.942130    16.993164    -16.022839    -6.792245    -2.294376    8.583460    -24.808416    3.210665    1.329218    22.278391    4.594377    -9.176372    -7.768814    -15.510598    -0.374472    -1.194499    0.415991    -8.706382    -17.700962    -1.467074    1.025612    13.900487    4.455869    7.388093    -7.553779    -13.654482    -1.219951    -1.268815    1.321787    
-6.980404    83.231033    104.531334    1.228284    -13.911921    -175.130356    -2.019939    -21.303978    -0.276214    1.362220    11.864425    -0.037191    1.578338    1.526492    -1.978378    5.247536    -10.410905    -1.058986    1.283252    18.849794    -4.250759    -36.668522    48.750523    -47.558609    1.606401    -6.334873    -10.292167    21.444761    -5.982770    1.106235    3.588381    21.612160    -0.431804    37.057991    44.843384    42.098530    -5.584830    -7.945007    16.976469    -16.006552    -6.797262    -2.298038    8.587728    -24.846197    3.204043    1.335199    22.300991    4.555032    -9.200945    -7.769742    -15.490299    -0.374086    -1.203810    0.415570    -8.699490    -17.712234    -1.461496    1.028381    13.893711    4.445929    7.387479    -7.551503    -13.670360    -1.217110    -1.271912    1.318714    
-6.981544    83.230881    104.541039    1.244320    -13.927835    -175.103806    -2.006909    -21.301815    -0.274197    1.343401    11.872310    -0.035877    1.582765    1.493095    -1.979860    5.231368    -10.417756    -1.065031    1.283271    18.853630    -4.249317    -36.665035    48.752121    -47.546001    1.603246    -6.352052    -10.288857    21.482140    -5.997121    1.121102    3.595253    21.603926    -0.425401    37.065918    44.833447    42.072674    -5.572991    -7.948432    16.955612    -15.989594    -6.803323    -2.301722    8.591963    -24.888739    3.196671    1.341930    22.325308    4.509188    -9.228237    -7.770247    -15.467086    -0.373475    -1.214803    0.414900    -8.692268    -17.724022    -1.457235    1.031220    13.884768    4.438099    7.386784    -7.548983    -13.690715    -1.213628    -1.275445    1.314949    
